<svg width="12" height="14" viewBox="0 0 12 14" fill="none" xmlns="http://www.w3.org/2000/svg">
<path d="M8.78 0.238708C8.71134 0.165022 8.62854 0.105919 8.53654 0.0649275C8.44454 0.0239355 8.34522 0.00189351 8.24452 0.000116721C8.14382 -0.00166006 8.04379 0.0168646 7.9504 0.0545856C7.85701 0.0923066 7.77218 0.148451 7.70096 0.21967C7.62974 0.290889 7.5736 0.375723 7.53588 0.469111C7.49816 0.562499 7.47963 0.662528 7.48141 0.763231C7.48318 0.863934 7.50523 0.963247 7.54622 1.05525C7.58721 1.14725 7.64631 1.23005 7.72 1.29871L9.44 3.01871H0.75C0.551088 3.01871 0.360322 3.09773 0.21967 3.23838C0.0790175 3.37903 0 3.5698 0 3.76871C0 3.96762 0.0790175 4.15839 0.21967 4.29904C0.360322 4.43969 0.551088 4.51871 0.75 4.51871H9.44L7.72 6.23871C7.64631 6.30737 7.58721 6.39017 7.54622 6.48217C7.50523 6.57417 7.48318 6.67348 7.48141 6.77419C7.47963 6.87489 7.49816 6.97492 7.53588 7.06831C7.5736 7.16169 7.62974 7.24653 7.70096 7.31775C7.77218 7.38896 7.85701 7.44511 7.9504 7.48283C8.04379 7.52055 8.14382 7.53908 8.24452 7.5373C8.34522 7.53552 8.44454 7.51348 8.53654 7.47249C8.62854 7.4315 8.71134 7.37239 8.78 7.29871L11.78 4.29871C11.9205 4.15808 11.9993 3.96746 11.9993 3.76871C11.9993 3.56996 11.9205 3.37933 11.78 3.23871L8.78 0.238708ZM4.28 7.79871C4.35369 7.73005 4.41279 7.64725 4.45378 7.55525C4.49477 7.46325 4.51682 7.36393 4.51859 7.26323C4.52037 7.16253 4.50184 7.0625 4.46412 6.96911C4.4264 6.87572 4.37026 6.79089 4.29904 6.71967C4.22782 6.64845 4.14299 6.59231 4.0496 6.55459C3.95621 6.51686 3.85618 6.49834 3.75548 6.50012C3.65477 6.50189 3.55546 6.52394 3.46346 6.56493C3.37146 6.60592 3.28866 6.66502 3.22 6.73871L0.22 9.73871C0.0795493 9.87933 0.000659943 10.07 0.000659943 10.2687C0.000659943 10.4675 0.0795493 10.6581 0.22 10.7987L3.22 13.7987C3.36217 13.9312 3.55022 14.0033 3.74452 13.9999C3.93882 13.9965 4.12421 13.9177 4.26162 13.7803C4.39903 13.6429 4.47775 13.4575 4.48118 13.2632C4.4846 13.0689 4.41248 12.8809 4.28 12.7387L2.56 11.0187H11.25C11.4489 11.0187 11.6397 10.9397 11.7803 10.799C11.921 10.6584 12 10.4676 12 10.2687C12 10.0698 11.921 9.87903 11.7803 9.73838C11.6397 9.59773 11.4489 9.51871 11.25 9.51871H2.56L4.28 7.79871Z" fill="#2F2F39"/>
</svg>
